HIERARCHY
ROOT reference
{
	OFFSET -90.502098 0.000000 1.755774
	CHANNELS 6 Xposition Yposition Zposition Xrotation Yrotation Zrotation
	JOINT root
	{
		OFFSET 1.880760 89.671997 -7.242900
		CHANNELS 3 Xrotation Yrotation Zrotation
		JOINT Hips
		{
			OFFSET 0.000000 0.000000 0.000000
			CHANNELS 3 Xrotation Yrotation Zrotation
			JOINT Spine
			{
				OFFSET 0.018715 -0.106522 0.009742
				CHANNELS 3 Xrotation Yrotation Zrotation
				JOINT Spine1
				{
					OFFSET -5.293510 17.380302 -3.794800
					CHANNELS 3 Xrotation Yrotation Zrotation
					JOINT Spine2
					{
						OFFSET -5.431587 16.765602 -5.830029
						CHANNELS 3 Xrotation Yrotation Zrotation
						JOINT Neck
						{
							OFFSET -7.982063 14.557297 -8.299330
							CHANNELS 3 Xrotation Yrotation Zrotation
							JOINT Head
							{
								OFFSET -5.158058 7.854721 -6.684959
								CHANNELS 3 Xrotation Yrotation Zrotation
								End Site
								{
									OFFSET 0.000000 0.100006 0.000000
								}
							}
						}
						JOINT RightShoulder
						{
							OFFSET -6.139458 13.823593 -11.354399
							CHANNELS 3 Xrotation Yrotation Zrotation
							JOINT RightArm
							{
								OFFSET 6.841248 -5.663712 -13.406200
								CHANNELS 3 Xrotation Yrotation Zrotation
								JOINT RightForearm
								{
									OFFSET -1.583366 -12.235397 -26.691799
									CHANNELS 3 Xrotation Yrotation Zrotation
									JOINT RightHand
									{
										OFFSET -13.468597 -2.251762 -20.854904
										CHANNELS 3 Xrotation Yrotation Zrotation
										End Site
										{
											OFFSET 0.000000 0.099998 0.000000
										}
									}
								}
							}
						}
						JOINT LeftShoulder
						{
							OFFSET -9.834099 15.277695 -5.252689
							CHANNELS 3 Xrotation Yrotation Zrotation
							JOINT LeftArm
							{
								OFFSET -7.357773 2.976974 13.986002
								CHANNELS 3 Xrotation Yrotation Zrotation
								JOINT LeftForearm
								{
									OFFSET 7.692787 -14.025902 24.673000
									CHANNELS 3 Xrotation Yrotation Zrotation
									JOINT LeftHand
									{
										OFFSET -9.796074 -21.465797 -8.040868
										CHANNELS 3 Xrotation Yrotation Zrotation
										End Site
										{
											OFFSET 0.000000 0.099998 0.000000
										}
									}
								}
							}
						}
					}
				}
			}
			JOINT RightUpLeg
			{
				OFFSET 4.849403 0.340744 -8.229600
				CHANNELS 3 Xrotation Yrotation Zrotation
				JOINT RightLeg
				{
					OFFSET 7.069298 -43.389702 -9.724192
					CHANNELS 3 Xrotation Yrotation Zrotation
					JOINT RightFoot
					{
						OFFSET 18.254601 -36.336201 6.482475
						CHANNELS 3 Xrotation Yrotation Zrotation
						JOINT RightToe
						{
							OFFSET -10.815697 -7.739180 -12.135296
							CHANNELS 3 Xrotation Yrotation Zrotation
							End Site
							{
								OFFSET 0.000000 0.100000 0.000000
							}
						}
					}
				}
			}
			JOINT LeftUpLeg
			{
				OFFSET -4.849403 -0.340767 8.229591
				CHANNELS 3 Xrotation Yrotation Zrotation
				JOINT LeftLeg
				{
					OFFSET -22.404396 -38.934101 -3.061946
					CHANNELS 3 Xrotation Yrotation Zrotation
					JOINT LeftFoot
					{
						OFFSET 3.268173 -41.018398 1.541950
						CHANNELS 3 Xrotation Yrotation Zrotation
						JOINT LeftToe
						{
							OFFSET -16.265396 -7.717820 0.107094
							CHANNELS 3 Xrotation Yrotation Zrotation
							End Site
							{
								OFFSET 0.000000 0.100000 0.000000
							}
						}
					}
				}
			}
		}
	}
}
MOTION
Frames: 15
Frame Time: 0.041667
-52.369400 -0.000000 -0.355087 -0.000000 0.000000 0.000000 1.427502 12.804303 -1.624944 0.736963 0.209504 0.441950 -0.525998 -3.122929 -0.123648 -0.402148 -4.180770 0.422126 -0.035411 -2.786547 0.701603 -0.044560 -0.212147 0.105563 -0.159783 -0.399857 0.149323 -0.894706 0.971045 -0.703412 2.927798 -2.812852 0.263027 0.054966 0.091914 -0.045434 0.003418 -0.272745 -0.044435 0.048354 0.810784 -0.189236 1.594126 0.035294 1.801574 -1.080433 0.297284 0.510992 -0.085437 -0.565229 -0.179584 -0.477122 -6.277629 -33.683409 0.957464 0.329396 -0.808259 -14.516744 -8.669237 19.323758 2.230512 -0.218072 3.930721 -3.783089 -0.708911 28.003840 -2.386102 0.035272 13.366072 2.068698 0.552446 -22.518201 0.284043 0.339390 -18.526337 
-56.450211 -0.000000 0.234967 -0.000000 0.000000 0.000000 1.070235 11.874861 -1.391866 1.123371 0.321783 0.672977 -0.531888 -3.013648 -0.248725 -0.473379 -3.914285 0.191885 -0.098285 -2.633868 0.521159 0.004554 -0.090050 0.270505 -0.221250 -0.221971 0.487830 -0.645065 0.875240 -0.566694 1.767624 -2.158999 0.382309 0.013312 0.022272 -0.010986 -0.043322 -0.347112 -0.126496 -0.014376 0.901136 -0.248451 1.362955 -0.312057 2.253919 -0.628506 0.174196 0.296726 -0.021153 -0.671725 -0.240985 -0.419464 -5.174675 -32.058787 -1.565808 -0.571409 1.318235 -11.043992 -7.037095 15.889351 2.355434 -0.225742 4.150420 -5.141950 -2.226836 27.791592 -2.853143 -0.023334 15.996346 8.439955 -1.858157 -12.628902 -5.789445 2.034124 -29.682462 
-58.626099 0.000000 0.311915 -0.000000 0.000000 0.000000 0.841571 11.683027 -1.190718 1.299350 0.373472 0.778031 -0.528087 -3.007626 -0.338448 -0.494856 -3.848832 0.048484 -0.116039 -2.605048 0.418395 0.050671 -0.116241 0.210696 -0.093694 -0.254961 0.420946 -0.600809 0.811152 -0.526862 1.450258 -1.998480 0.689379 0.006992 0.011709 -0.005777 -0.070926 -0.347116 -0.173625 -0.069638 0.870986 -0.270820 1.155397 -0.356014 2.264721 -0.339448 0.094523 0.160073 -0.020560 -0.636355 -0.287912 -0.863100 -5.019989 -31.093388 -1.977026 -0.728244 1.663664 -9.631266 -6.347616 14.655482 2.439685 -0.230637 4.298549 -5.541155 -3.418852 26.914130 -3.265061 -0.093255 18.330553 12.860341 -2.937607 -5.300316 -9.759520 3.916857 -34.890724 
-62.614799 0.000000 0.838539 -0.000000 0.000000 0.000000 0.674526 11.456680 -0.654173 1.126658 0.322742 0.674947 -0.494078 -2.790167 -0.412054 -0.467336 -3.587359 -0.092573 -0.112443 -2.441938 0.296727 0.015887 -0.245404 0.148854 -0.085142 -0.478025 0.263056 -0.719338 0.715535 -0.546172 1.451019 -2.256339 0.877592 -0.089112 -0.149355 0.073618 -0.095968 -0.485041 -0.251984 -0.132360 0.696251 -0.258317 0.887286 -0.555645 1.621579 0.044172 -0.012383 -0.020809 0.000899 -0.499316 -0.344004 -1.797767 -4.837338 -29.053791 -2.098774 -0.775229 1.765882 -7.328258 -5.278706 12.861723 2.648172 -0.241795 4.665095 -6.559671 -3.873520 22.249437 -4.587931 -0.438358 25.969093 20.669232 -4.791971 10.856369 -15.184853 8.620920 -34.147001 
-64.609497 0.000000 0.923193 -0.000000 0.000000 0.000000 0.731339 11.511715 -0.342614 0.833770 0.237472 0.499876 -0.460489 -2.669262 -0.404050 -0.406136 -3.505446 -0.085676 -0.075879 -2.383063 0.292113 -0.029026 -0.260147 0.194243 -0.194291 -0.517600 0.300091 -0.675596 0.672603 -0.513574 1.454830 -2.231704 0.966676 -0.157670 -0.264565 0.130215 -0.178909 -0.534941 -0.387301 -0.179851 0.670572 -0.277660 0.767037 -0.629247 1.128131 0.234084 -0.065769 -0.110132 0.010725 -0.415549 -0.377650 -2.195130 -4.935631 -28.073343 -2.050259 -0.756485 1.725166 -6.380352 -4.870639 12.064757 2.770661 -0.247735 4.880381 -7.165983 -2.970112 18.906729 -5.302512 -0.706499 30.227381 21.220329 -5.531042 15.509594 -14.693045 9.286585 -27.619690 
-68.666077 0.000000 1.293690 -0.000000 0.000000 0.000000 0.924659 11.707887 0.197427 0.028726 0.008095 0.017258 -0.354091 -2.365883 -0.315313 -0.204341 -3.334579 0.039309 0.050274 -2.245597 0.355721 -0.048605 -0.279057 0.277958 -0.292532 -0.572628 0.421190 -0.636510 0.648459 -0.489020 1.515290 -2.227404 0.790313 -0.152778 -0.256357 0.126188 -0.111877 -0.534580 -0.354217 -0.190628 0.657280 -0.279999 0.595115 -0.467238 0.303310 0.486191 -0.137163 -0.228510 0.054270 -0.267906 -0.358659 -2.565433 -5.073373 -26.128481 -2.029793 -0.748590 1.708007 -4.795726 -4.280669 10.596035 3.046901 -0.259427 5.365854 -7.324633 0.430489 11.772481 -6.165073 -1.115254 35.548392 13.827637 0.063700 9.009381 -3.707206 2.815601 -17.671960 
-70.521210 0.000000 1.368830 -0.000000 0.000000 0.000000 0.926568 11.738104 0.416914 -0.373673 -0.103852 -0.224744 -0.271642 -2.202191 -0.276956 -0.062493 -3.237195 0.093118 0.140474 -2.167571 0.379813 -0.042958 -0.254049 0.321682 -0.321897 -0.537694 0.504990 -0.604959 0.672564 -0.483376 1.543527 -2.186547 0.794007 -0.101095 -0.169500 0.083533 -0.089882 -0.514633 -0.324791 -0.226667 0.700782 -0.311587 0.653396 -0.243667 0.261935 0.427477 -0.120478 -0.200946 0.029598 -0.282506 -0.365891 -2.640205 -5.211043 -25.140700 -1.951553 -0.718459 1.642295 -3.829117 -3.837513 10.120160 3.198302 -0.264845 5.631885 -6.685580 2.072156 8.202849 -6.214329 -1.141628 35.859593 9.850881 2.822431 5.712975 0.745208 0.536901 -15.981014 
-72.841202 0.000000 1.424861 -0.000000 0.000000 0.000000 0.884697 11.793316 0.618521 -0.680668 -0.188039 -0.409706 -0.201693 -2.086446 -0.256535 0.057369 -3.178774 0.124642 0.218154 -2.119031 0.393179 -0.046373 -0.246676 0.311582 -0.321933 -0.521401 0.489811 -0.551644 0.728119 -0.478683 1.525513 -2.155126 0.647647 -0.080300 -0.134581 0.066357 -0.021136 -0.537200 -0.245105 -0.258639 0.737418 -0.338936 0.664446 -0.091477 0.533786 0.382657 -0.107771 -0.179927 0.035549 -0.287432 -0.331827 -2.847739 -5.388013 -24.204389 -1.757811 -0.644283 1.479566 -2.427308 -3.358179 9.971516 3.356866 -0.269772 5.910478 -5.840373 3.431232 4.734989 -5.991909 -1.025239 34.461378 8.558763 3.221866 3.587526 1.027669 0.374061 -15.894887 
-76.724411 0.000000 1.679282 -0.000000 0.000000 0.000000 0.580436 12.029144 0.782671 -0.932653 -0.256174 -0.561735 -0.085744 -2.002459 -0.135394 0.240895 -3.121251 0.296214 0.338666 -2.054290 0.499807 -0.086479 -0.327382 0.198246 -0.293402 -0.637675 0.259516 -0.500177 0.904516 -0.514651 1.463366 -2.172448 0.348750 -0.071781 -0.120300 0.059314 0.031142 -0.589430 -0.206785 -0.181239 0.688290 -0.283134 0.565510 -0.280476 1.169397 0.280158 -0.078768 -0.131784 0.104445 -0.431083 -0.184188 -3.345778 -5.822704 -22.509892 -1.516318 -0.552729 1.276640 1.590322 -2.238637 10.359955 3.690017 -0.277591 6.495709 -3.599782 6.853128 -1.353138 -4.784418 -0.506078 27.128690 6.246337 4.467729 0.379912 0.768601 0.302195 -9.165177 
-78.677208 0.000000 1.848372 -0.000000 0.000000 0.000000 0.369846 12.300430 0.758759 -0.921181 -0.253190 -0.554809 -0.035516 -2.044014 -0.083845 0.315458 -3.157941 0.373533 0.391082 -2.067636 0.554142 -0.085900 -0.354128 0.186866 -0.282349 -0.682313 0.239815 -0.498348 0.971318 -0.535933 1.436479 -2.092102 0.474664 -0.098228 -0.164704 0.081161 -0.013572 -0.596083 -0.269564 -0.121725 0.651720 -0.240445 0.616409 -0.413821 1.406738 0.097334 -0.027296 -0.045816 0.099888 -0.521192 -0.124591 -3.507747 -6.043243 -21.637489 -1.542059 -0.562447 1.298290 3.340481 -1.864857 10.285105 3.861748 -0.280313 6.797368 -2.162689 8.671020 -3.547643 -3.748803 -0.197704 21.094648 4.400115 4.389221 -0.354965 1.635649 0.071885 -2.205740 
-82.488808 0.000000 2.040442 -0.000000 0.000000 0.000000 0.212770 12.438049 0.669596 -0.898276 -0.247005 -0.540983 0.003477 -2.014043 -0.073443 0.363604 -3.102118 0.378368 0.420485 -2.027220 0.551023 -0.038256 -0.320871 0.226385 -0.240379 -0.630341 0.354270 -0.364181 1.058941 -0.507943 1.397057 -1.861316 1.083477 -0.173271 -0.290830 0.143080 -0.125925 -0.600665 -0.424906 -0.075206 0.713381 -0.231332 0.967516 -0.282242 1.725731 -0.177187 0.049466 0.083496 0.040637 -0.552313 -0.068268 -3.728041 -6.483175 -19.764592 -1.840869 -0.676006 1.549338 5.417280 -1.255110 9.023228 4.208208 -0.282998 7.405863 -0.646187 8.558073 -4.845983 -0.697026 0.068011 3.914140 3.828191 0.885390 1.275860 1.999063 0.046737 0.339528 
-84.544304 0.000000 1.884402 -0.000000 0.000000 0.000000 0.327852 12.000434 0.617928 -0.886864 -0.243835 -0.534096 0.004096 -1.875662 -0.106473 0.345017 -2.915119 0.303684 0.397284 -1.909803 0.482775 -0.024790 -0.271171 0.268773 -0.256564 -0.551227 0.442393 -0.245750 1.032780 -0.448627 1.262287 -1.694340 1.170318 -0.210605 -0.353722 0.173870 -0.118575 -0.620633 -0.432561 -0.078578 0.734230 -0.238796 1.013391 0.033902 1.912060 -0.055712 0.015580 0.026244 0.038398 -0.550628 -0.053074 -3.921120 -6.450011 -18.781584 -2.071191 -0.764559 1.742718 6.083959 -0.939174 8.053369 4.379966 -0.282979 7.707530 -2.183670 5.175585 -3.615054 1.178362 -0.226557 -6.706036 6.508759 -0.388248 3.401722 1.990372 0.047049 0.305483 
-88.406906 0.000000 1.792064 -0.000000 0.000000 0.000000 0.702055 10.086207 0.492517 -0.858742 -0.236327 -0.517122 0.025627 -1.449359 -0.170910 0.316547 -2.331689 0.126654 0.344812 -1.536612 0.307048 -0.041722 -0.134082 0.341913 -0.355176 -0.322717 0.565670 0.088313 0.914321 -0.264743 0.701091 -0.946224 1.070656 -0.224877 -0.377794 0.185644 -0.030427 -0.629853 -0.356747 -0.099167 0.845561 -0.280185 0.804282 0.466375 2.479565 0.305232 -0.085868 -0.143560 0.062606 -0.607955 -0.013094 -4.169470 -5.552611 -16.609743 -2.694724 -1.008812 2.265752 7.153559 -0.349789 5.777280 4.713184 -0.280357 8.292825 -7.343757 -0.459822 2.365141 4.913708 -2.039316 -29.997853 10.202819 1.398180 11.282735 1.974250 0.047634 0.242276 
-90.502106 0.000000 1.755774 -0.000000 0.000000 0.000000 0.730488 8.930860 0.379363 -0.713463 -0.196954 -0.429482 0.055541 -1.294236 -0.185322 0.320629 -2.064924 0.061953 0.332418 -1.363537 0.237415 -0.062351 -0.057414 0.357915 -0.409671 -0.188101 0.585731 0.211856 0.819089 -0.178655 0.491299 -0.246213 1.073185 -0.271510 -0.456427 0.224053 -0.031309 -0.596767 -0.372388 -0.103145 0.847153 -0.282810 0.713334 0.622546 2.752665 0.319737 -0.089967 -0.150375 0.026721 -0.630323 -0.013057 -4.132406 -5.000736 -15.413736 -2.983633 -1.124195 2.507822 7.501358 -0.078086 4.554009 4.871818 -0.277918 8.571441 -7.795754 -0.347430 3.591619 5.476931 -2.504205 -34.055057 10.389185 1.579709 12.096478 1.967128 0.047629 0.214394 
-94.134010 0.000000 1.516614 -0.000000 0.000000 0.000000 0.785147 6.917336 0.356047 -0.412172 -0.114454 -0.247926 0.059281 -1.190234 -0.272337 0.275798 -1.828143 -0.106780 0.288503 -1.223169 0.101412 -0.114546 0.126578 0.354925 -0.514451 0.145946 0.572056 0.378010 0.704912 -0.067019 0.349070 1.186699 1.200267 -0.343372 -0.577954 0.283268 -0.232243 -0.268734 -0.511118 -0.023575 0.865891 -0.243994 0.817357 0.606390 3.187470 0.132610 -0.037198 -0.062422 -0.025131 -0.621652 0.014250 -3.801276 -4.326411 -13.012682 -3.417413 -1.300099 2.870937 7.637335 0.479387 2.033748 5.166322 -0.271315 9.088766 -7.566862 -1.280915 4.894147 5.478094 -2.505228 -34.063632 10.384023 1.759067 12.747211 1.955524 0.046779 0.168923 
